<mxfile host="app.diagrams.net" modified="2021-10-18T16:37:00.827Z" agent="5.0 (Windows NT 10.0; Win64; x64) AppleWebKit/537.36 (KHTML, like Gecko) Chrome/94.0.4606.81 Safari/537.36" etag="oM3WXpMRLZY6FAp4m-Oq" version="15.5.1" type="github">
  <diagram id="r8HiU9aVsxHV5ANtaH4A" name="Page-1">
    <mxGraphModel dx="1422" dy="762" grid="1" gridSize="10" guides="1" tooltips="1" connect="1" arrows="1" fold="1" page="1" pageScale="1" pageWidth="850" pageHeight="1100" math="0" shadow="0">
      <root>
        <mxCell id="0" />
        <mxCell id="1" parent="0" />
        <mxCell id="LT9F1PL3iZhj8fuFXc5--1" value="" style="rounded=0;whiteSpace=wrap;html=1;" vertex="1" parent="1">
          <mxGeometry width="850" height="720" as="geometry" />
        </mxCell>
        <mxCell id="LT9F1PL3iZhj8fuFXc5--2" value="Golf Scorecard&lt;br&gt;" style="text;strokeColor=none;fillColor=none;html=1;fontSize=24;fontStyle=1;verticalAlign=middle;align=center;" vertex="1" parent="1">
          <mxGeometry x="50" y="30" width="100" height="40" as="geometry" />
        </mxCell>
        <UserObject label="&lt;font style=&quot;font-size: 16px&quot;&gt;Hole&lt;/font&gt;" placeholders="1" name="Variable" id="LT9F1PL3iZhj8fuFXc5--3">
          <mxCell style="text;html=1;strokeColor=none;fillColor=none;align=center;verticalAlign=middle;whiteSpace=wrap;overflow=hidden;" vertex="1" parent="1">
            <mxGeometry x="50" y="101" width="70" height="20" as="geometry" />
          </mxCell>
        </UserObject>
        <UserObject label="&lt;font style=&quot;font-size: 16px&quot;&gt;Par&lt;/font&gt;" placeholders="1" name="Variable" id="LT9F1PL3iZhj8fuFXc5--4">
          <mxCell style="text;html=1;strokeColor=none;fillColor=none;align=center;verticalAlign=middle;whiteSpace=wrap;overflow=hidden;" vertex="1" parent="1">
            <mxGeometry x="140" y="101" width="70" height="20" as="geometry" />
          </mxCell>
        </UserObject>
        <UserObject label="&lt;font style=&quot;font-size: 16px&quot;&gt;Score&lt;/font&gt;" placeholders="1" name="Variable" id="LT9F1PL3iZhj8fuFXc5--5">
          <mxCell style="text;html=1;strokeColor=none;fillColor=none;align=center;verticalAlign=middle;whiteSpace=wrap;overflow=hidden;" vertex="1" parent="1">
            <mxGeometry x="240" y="101" width="70" height="20" as="geometry" />
          </mxCell>
        </UserObject>
        <UserObject label="&lt;font style=&quot;font-size: 16px&quot;&gt;Over&lt;/font&gt;" placeholders="1" name="Variable" id="LT9F1PL3iZhj8fuFXc5--6">
          <mxCell style="text;html=1;strokeColor=none;fillColor=none;align=center;verticalAlign=middle;whiteSpace=wrap;overflow=hidden;" vertex="1" parent="1">
            <mxGeometry x="367" y="101" width="70" height="20" as="geometry" />
          </mxCell>
        </UserObject>
        <UserObject label="&lt;font style=&quot;font-size: 16px&quot;&gt;Actions&lt;/font&gt;" placeholders="1" name="Variable" id="LT9F1PL3iZhj8fuFXc5--7">
          <mxCell style="text;html=1;strokeColor=none;fillColor=none;align=center;verticalAlign=middle;whiteSpace=wrap;overflow=hidden;" vertex="1" parent="1">
            <mxGeometry x="481" y="102" width="70" height="20" as="geometry" />
          </mxCell>
        </UserObject>
      </root>
    </mxGraphModel>
  </diagram>
</mxfile>
